<?xml version="1.0" encoding="utf-8"?>
<!-- Generator: Adobe Illustrator 28.0.0, SVG Export Plug-In . SVG Version: 6.00 Build 0)  -->
<svg version="1.1" id="Layer_1" xmlns="http://www.w3.org/2000/svg" xmlns:xlink="http://www.w3.org/1999/xlink" x="0px" y="0px"
	 viewBox="0 0 800 800" style="enable-background:new 0 0 800 800;" xml:space="preserve">
<style type="text/css">
	.st0{fill:url(#SVGID_1_);}
	.st1{fill:url(#SVGID_00000127739422431704659060000017250357198390998710_);}
	.st2{fill:url(#SVGID_00000040548510986036156360000011616440686747633854_);}
	.st3{fill:#FFFFFF;}
	.st4{fill-rule:evenodd;clip-rule:evenodd;fill:#FFFFFF;}
</style>
<g id="SVGRepo_bgCarrier">
</g>
<g id="SVGRepo_tracerCarrier">
</g>
<g id="SVGRepo_iconCarrier">
	
		<radialGradient id="SVGID_1_" cx="-558.6815" cy="940.1552" r="1" gradientTransform="matrix(362.5004 -524.9997 -524.9997 -362.5004 696403.4375 48074.043)" gradientUnits="userSpaceOnUse">
		<stop  offset="0" style="stop-color:#3692B5"/>
		<stop  offset="0.7931" style="stop-color:#309ECA"/>
		<stop  offset="1" style="stop-color:#3BCC7E"/>
	</radialGradient>
	<path class="st0" d="M200,50h400c82.8,0,150,67.2,150,150v400c0,82.8-67.2,150-150,150H200c-82.8,0-150-67.2-150-150V200
		C50,117.2,117.2,50,200,50z"/>
	
		<radialGradient id="SVGID_00000088832534504011925220000009372309964953458822_" cx="-558.8072" cy="939.9987" r="1" gradientTransform="matrix(237.4995 -512.4989 -512.4989 -237.4995 614739.6875 -62363.8125)" gradientUnits="userSpaceOnUse">
		<stop  offset="0" style="stop-color:#ECC3BA"/>
		<stop  offset="0.4447" style="stop-color:#9C2EFF"/>
		<stop  offset="0.7147" style="stop-color:#4364E6"/>
		<stop  offset="1" style="stop-color:#4364E6;stop-opacity:0"/>
	</radialGradient>
	<path style="fill:url(#SVGID_00000088832534504011925220000009372309964953458822_);" d="M200,50h400c82.8,0,150,67.2,150,150v400
		c0,82.8-67.2,150-150,150H200c-82.8,0-150-67.2-150-150V200C50,117.2,117.2,50,200,50z"/>
	
		<radialGradient id="SVGID_00000075139230988998712030000017689953451790725536_" cx="-558.451" cy="939.9582" r="1" gradientTransform="matrix(962.5007 -137.5001 -29.4098 -205.8689 565166 116796.1094)" gradientUnits="userSpaceOnUse">
		<stop  offset="0.1567" style="stop-color:#C2E041"/>
		<stop  offset="0.4678" style="stop-color:#46C24C"/>
		<stop  offset="1" style="stop-color:#46C24C;stop-opacity:0"/>
	</radialGradient>
	<path style="fill:url(#SVGID_00000075139230988998712030000017689953451790725536_);" d="M200,50h400c82.8,0,150,67.2,150,150v400
		c0,82.8-67.2,150-150,150H200c-82.8,0-150-67.2-150-150V200C50,117.2,117.2,50,200,50z"/>
	<path class="st3" d="M575,262.5c0,20.7-16.8,37.5-37.5,37.5S500,283.2,500,262.5c0-20.7,16.8-37.5,37.5-37.5S575,241.8,575,262.5z"
		/>
	<path class="st4" d="M400,525c69,0,125-56,125-125s-56-125-125-125s-125,56-125,125S331,525,400,525z M400,475
		c41.4,0,75-33.6,75-75s-33.6-75-75-75s-75,33.6-75,75S358.6,475,400,475z"/>
	<path class="st4" d="M150,390c0-84,0-126,16.3-158.1c14.4-28.2,37.3-51.2,65.6-65.6C264,150,306,150,390,150h20
		c84,0,126,0,158.1,16.3c28.2,14.4,51.2,37.3,65.6,65.6C650,264,650,306,650,390v20c0,84,0,126-16.3,158.1
		c-14.4,28.2-37.3,51.2-65.6,65.6C536,650,494,650,410,650h-20c-84,0-126,0-158.1-16.3c-28.2-14.4-51.2-37.3-65.6-65.6
		C150,536,150,494,150,410V390z M390,200h20c42.8,0,71.9,0,94.4,1.9c21.9,1.8,33.1,5,41,9c18.8,9.6,34.1,24.9,43.7,43.7
		c4,7.8,7.2,19,9,41c1.8,22.5,1.9,51.6,1.9,94.4v20c0,42.8,0,71.9-1.9,94.4c-1.8,21.9-5,33.1-9,41c-9.6,18.8-24.9,34.1-43.7,43.7
		c-7.8,4-19,7.2-41,9c-22.5,1.8-51.6,1.9-94.4,1.9h-20c-42.8,0-71.9,0-94.4-1.9c-21.9-1.8-33.1-5-41-9
		c-18.8-9.6-34.1-24.9-43.7-43.7c-4-7.8-7.2-19-9-41c-1.8-22.5-1.9-51.6-1.9-94.4v-20c0-42.8,0-71.9,1.9-94.4c1.8-21.9,5-33.1,9-41
		c9.6-18.8,24.9-34.1,43.7-43.7c7.8-4,19-7.2,41-9C318.1,200,347.2,200,390,200z"/>
</g>
</svg>
